<mxfile host="app.diagrams.net" modified="2023-10-01T20:08:17.756Z" agent="Mozilla/5.0 (Macintosh; Intel Mac OS X 10_15_7) AppleWebKit/537.36 (KHTML, like Gecko) Chrome/116.0.0.0 Safari/537.36" etag="soQt35-ud1SYxTgzqAo2" version="22.0.0" type="github">
  <diagram name="Page-1" id="WiTn8isQ3tz0NeDUUIZ3">
    <mxGraphModel dx="1873" dy="837" grid="1" gridSize="10" guides="1" tooltips="1" connect="1" arrows="1" fold="1" page="1" pageScale="1" pageWidth="850" pageHeight="1100" math="0" shadow="0">
      <root>
        <mxCell id="0" />
        <mxCell id="1" parent="0" />
        <mxCell id="_yR6piTLcmD-9P2-bQx6-15" value="" style="group" vertex="1" connectable="0" parent="1">
          <mxGeometry x="185" y="265" width="495" height="140" as="geometry" />
        </mxCell>
        <mxCell id="_yR6piTLcmD-9P2-bQx6-13" value="" style="rounded=1;whiteSpace=wrap;html=1;arcSize=7;" vertex="1" parent="_yR6piTLcmD-9P2-bQx6-15">
          <mxGeometry y="12.352941176470587" width="475" height="127.6470588235294" as="geometry" />
        </mxCell>
        <mxCell id="_yR6piTLcmD-9P2-bQx6-35" style="edgeStyle=orthogonalEdgeStyle;rounded=0;orthogonalLoop=1;jettySize=auto;html=1;exitX=0.75;exitY=1;exitDx=0;exitDy=0;entryX=0.5;entryY=1;entryDx=0;entryDy=0;" edge="1" parent="_yR6piTLcmD-9P2-bQx6-15" source="_yR6piTLcmD-9P2-bQx6-23" target="_yR6piTLcmD-9P2-bQx6-34">
          <mxGeometry relative="1" as="geometry">
            <Array as="points">
              <mxPoint x="278" y="95" />
              <mxPoint x="405" y="95" />
            </Array>
          </mxGeometry>
        </mxCell>
        <mxCell id="_yR6piTLcmD-9P2-bQx6-23" value="API Web Server&lt;br&gt;(Golang)" style="rounded=0;whiteSpace=wrap;html=1;" vertex="1" parent="_yR6piTLcmD-9P2-bQx6-15">
          <mxGeometry x="187.5" y="30" width="120" height="40" as="geometry" />
        </mxCell>
        <mxCell id="_yR6piTLcmD-9P2-bQx6-34" value="&amp;nbsp;Database&lt;br&gt;(PostgresSQL)" style="rounded=0;whiteSpace=wrap;html=1;" vertex="1" parent="_yR6piTLcmD-9P2-bQx6-15">
          <mxGeometry x="345" y="30" width="120" height="40" as="geometry" />
        </mxCell>
        <mxCell id="_yR6piTLcmD-9P2-bQx6-36" value="Stores and retrieves data&amp;nbsp;" style="text;html=1;align=center;verticalAlign=middle;resizable=0;points=[];autosize=1;strokeColor=none;fillColor=none;" vertex="1" parent="_yR6piTLcmD-9P2-bQx6-15">
          <mxGeometry x="265" y="95.00461538461538" width="160" height="30" as="geometry" />
        </mxCell>
        <mxCell id="_yR6piTLcmD-9P2-bQx6-42" style="edgeStyle=orthogonalEdgeStyle;rounded=0;orthogonalLoop=1;jettySize=auto;html=1;exitX=0.25;exitY=1;exitDx=0;exitDy=0;entryX=0.25;entryY=1;entryDx=0;entryDy=0;" edge="1" parent="_yR6piTLcmD-9P2-bQx6-15" source="_yR6piTLcmD-9P2-bQx6-39" target="_yR6piTLcmD-9P2-bQx6-23">
          <mxGeometry relative="1" as="geometry">
            <Array as="points">
              <mxPoint x="45" y="95" />
              <mxPoint x="218" y="95" />
            </Array>
          </mxGeometry>
        </mxCell>
        <mxCell id="_yR6piTLcmD-9P2-bQx6-39" value="Web Application&lt;br&gt;(React)" style="rounded=0;whiteSpace=wrap;html=1;" vertex="1" parent="_yR6piTLcmD-9P2-bQx6-15">
          <mxGeometry x="15" y="30" width="120" height="40" as="geometry" />
        </mxCell>
        <mxCell id="_yR6piTLcmD-9P2-bQx6-43" value="Requests and sends data using" style="text;html=1;align=center;verticalAlign=middle;resizable=0;points=[];autosize=1;strokeColor=none;fillColor=none;" vertex="1" parent="_yR6piTLcmD-9P2-bQx6-15">
          <mxGeometry x="35" y="95.00461538461538" width="190" height="30" as="geometry" />
        </mxCell>
        <mxCell id="_yR6piTLcmD-9P2-bQx6-14" value="&lt;b style=&quot;border-color: var(--border-color);&quot;&gt;Loan Management System&amp;nbsp;&lt;br&gt;&lt;/b&gt;" style="text;html=1;align=center;verticalAlign=middle;resizable=0;points=[];autosize=1;strokeColor=none;fillColor=none;" vertex="1" parent="_yR6piTLcmD-9P2-bQx6-15">
          <mxGeometry y="-17.64500000000001" width="180" height="30" as="geometry" />
        </mxCell>
        <mxCell id="_yR6piTLcmD-9P2-bQx6-55" style="edgeStyle=orthogonalEdgeStyle;rounded=0;orthogonalLoop=1;jettySize=auto;html=1;exitX=0.5;exitY=0.5;exitDx=0;exitDy=0;exitPerimeter=0;entryX=0;entryY=0.5;entryDx=0;entryDy=0;" edge="1" parent="1" source="_yR6piTLcmD-9P2-bQx6-16" target="_yR6piTLcmD-9P2-bQx6-39">
          <mxGeometry relative="1" as="geometry" />
        </mxCell>
        <mxCell id="_yR6piTLcmD-9P2-bQx6-16" value="Actor" style="shape=umlActor;verticalLabelPosition=bottom;verticalAlign=top;html=1;noLabel=1;" vertex="1" parent="1">
          <mxGeometry x="-40" y="283.46" width="30" height="60" as="geometry" />
        </mxCell>
        <mxCell id="_yR6piTLcmD-9P2-bQx6-17" value="Actor" style="shape=umlActor;verticalLabelPosition=bottom;verticalAlign=top;html=1;noLabel=1;" vertex="1" parent="1">
          <mxGeometry x="-40" y="420" width="30" height="60" as="geometry" />
        </mxCell>
        <mxCell id="_yR6piTLcmD-9P2-bQx6-18" value="Actor" style="shape=umlActor;verticalLabelPosition=bottom;verticalAlign=top;html=1;noLabel=1;" vertex="1" parent="1">
          <mxGeometry x="770" y="270" width="30" height="60" as="geometry" />
        </mxCell>
        <mxCell id="_yR6piTLcmD-9P2-bQx6-19" value="Admin" style="text;html=1;align=center;verticalAlign=middle;resizable=0;points=[];autosize=1;strokeColor=none;fillColor=none;" vertex="1" parent="1">
          <mxGeometry x="-55" y="343.46" width="60" height="30" as="geometry" />
        </mxCell>
        <mxCell id="_yR6piTLcmD-9P2-bQx6-20" value="Manages loans using" style="text;html=1;align=center;verticalAlign=middle;resizable=0;points=[];autosize=1;strokeColor=none;fillColor=none;" vertex="1" parent="1">
          <mxGeometry x="30" y="450" width="140" height="30" as="geometry" />
        </mxCell>
        <mxCell id="_yR6piTLcmD-9P2-bQx6-21" value="Borrower" style="text;html=1;align=center;verticalAlign=middle;resizable=0;points=[];autosize=1;strokeColor=none;fillColor=none;" vertex="1" parent="1">
          <mxGeometry x="750" y="320" width="70" height="30" as="geometry" />
        </mxCell>
        <mxCell id="_yR6piTLcmD-9P2-bQx6-22" value="&lt;b&gt;Email System&lt;/b&gt;" style="rounded=1;whiteSpace=wrap;html=1;" vertex="1" parent="1">
          <mxGeometry x="372.5" y="80" width="120" height="60" as="geometry" />
        </mxCell>
        <mxCell id="_yR6piTLcmD-9P2-bQx6-25" style="edgeStyle=orthogonalEdgeStyle;rounded=0;orthogonalLoop=1;jettySize=auto;html=1;exitX=0.5;exitY=0;exitDx=0;exitDy=0;entryX=0.5;entryY=1;entryDx=0;entryDy=0;" edge="1" parent="1" source="_yR6piTLcmD-9P2-bQx6-23" target="_yR6piTLcmD-9P2-bQx6-22">
          <mxGeometry relative="1" as="geometry" />
        </mxCell>
        <mxCell id="_yR6piTLcmD-9P2-bQx6-26" value="Send Mails using" style="text;html=1;align=center;verticalAlign=middle;resizable=0;points=[];autosize=1;strokeColor=none;fillColor=none;rotation=-90;" vertex="1" parent="1">
          <mxGeometry x="390" y="210" width="110" height="30" as="geometry" />
        </mxCell>
        <mxCell id="_yR6piTLcmD-9P2-bQx6-27" style="edgeStyle=orthogonalEdgeStyle;rounded=0;orthogonalLoop=1;jettySize=auto;html=1;exitX=1;exitY=0.5;exitDx=0;exitDy=0;entryX=0.5;entryY=0;entryDx=0;entryDy=0;entryPerimeter=0;" edge="1" parent="1" source="_yR6piTLcmD-9P2-bQx6-22" target="_yR6piTLcmD-9P2-bQx6-18">
          <mxGeometry relative="1" as="geometry" />
        </mxCell>
        <mxCell id="_yR6piTLcmD-9P2-bQx6-28" value="Sends mails on loan request&amp;nbsp;" style="text;html=1;align=center;verticalAlign=middle;resizable=0;points=[];autosize=1;strokeColor=none;fillColor=none;" vertex="1" parent="1">
          <mxGeometry x="610" y="70" width="180" height="30" as="geometry" />
        </mxCell>
        <mxCell id="_yR6piTLcmD-9P2-bQx6-29" value="&lt;b&gt;Form System&lt;/b&gt;" style="rounded=1;whiteSpace=wrap;html=1;" vertex="1" parent="1">
          <mxGeometry x="372.5" y="600" width="120" height="60" as="geometry" />
        </mxCell>
        <mxCell id="_yR6piTLcmD-9P2-bQx6-30" style="edgeStyle=orthogonalEdgeStyle;rounded=0;orthogonalLoop=1;jettySize=auto;html=1;exitX=0.5;exitY=0.5;exitDx=0;exitDy=0;exitPerimeter=0;entryX=1;entryY=0.5;entryDx=0;entryDy=0;" edge="1" parent="1" source="_yR6piTLcmD-9P2-bQx6-18" target="_yR6piTLcmD-9P2-bQx6-29">
          <mxGeometry relative="1" as="geometry">
            <mxPoint x="530" y="600" as="targetPoint" />
            <Array as="points">
              <mxPoint x="750" y="300" />
              <mxPoint x="750" y="630" />
            </Array>
          </mxGeometry>
        </mxCell>
        <mxCell id="_yR6piTLcmD-9P2-bQx6-31" value="Sends loan requests using" style="text;html=1;align=center;verticalAlign=middle;resizable=0;points=[];autosize=1;strokeColor=none;fillColor=none;rotation=-90;" vertex="1" parent="1">
          <mxGeometry x="655" y="430" width="160" height="30" as="geometry" />
        </mxCell>
        <mxCell id="_yR6piTLcmD-9P2-bQx6-33" value="Sends borrower loan requests to" style="text;html=1;align=center;verticalAlign=middle;resizable=0;points=[];autosize=1;strokeColor=none;fillColor=none;rotation=-90;" vertex="1" parent="1">
          <mxGeometry x="230" y="570" width="200" height="30" as="geometry" />
        </mxCell>
        <mxCell id="_yR6piTLcmD-9P2-bQx6-37" style="edgeStyle=orthogonalEdgeStyle;rounded=0;orthogonalLoop=1;jettySize=auto;html=1;exitX=0.5;exitY=1;exitDx=0;exitDy=0;entryX=0.5;entryY=0;entryDx=0;entryDy=0;" edge="1" parent="1" source="_yR6piTLcmD-9P2-bQx6-23" target="_yR6piTLcmD-9P2-bQx6-29">
          <mxGeometry relative="1" as="geometry">
            <mxPoint x="585" y="580" as="targetPoint" />
          </mxGeometry>
        </mxCell>
        <mxCell id="_yR6piTLcmD-9P2-bQx6-38" value="Fetches loan requests from" style="text;html=1;align=center;verticalAlign=middle;resizable=0;points=[];autosize=1;strokeColor=none;fillColor=none;rotation=-90;" vertex="1" parent="1">
          <mxGeometry x="340" y="490" width="170" height="30" as="geometry" />
        </mxCell>
        <mxCell id="_yR6piTLcmD-9P2-bQx6-50" value="Manages Lenders using" style="text;html=1;align=center;verticalAlign=middle;resizable=0;points=[];autosize=1;strokeColor=none;fillColor=none;" vertex="1" parent="1">
          <mxGeometry y="290" width="150" height="30" as="geometry" />
        </mxCell>
        <mxCell id="_yR6piTLcmD-9P2-bQx6-57" style="edgeStyle=orthogonalEdgeStyle;rounded=0;orthogonalLoop=1;jettySize=auto;html=1;exitX=0.5;exitY=0.5;exitDx=0;exitDy=0;exitPerimeter=0;entryX=0.067;entryY=0.95;entryDx=0;entryDy=0;entryPerimeter=0;" edge="1" parent="1" source="_yR6piTLcmD-9P2-bQx6-17" target="_yR6piTLcmD-9P2-bQx6-39">
          <mxGeometry relative="1" as="geometry" />
        </mxCell>
        <mxCell id="_yR6piTLcmD-9P2-bQx6-58" value="Lender" style="text;html=1;align=center;verticalAlign=middle;resizable=0;points=[];autosize=1;strokeColor=none;fillColor=none;" vertex="1" parent="1">
          <mxGeometry x="-55" y="480" width="60" height="30" as="geometry" />
        </mxCell>
      </root>
    </mxGraphModel>
  </diagram>
</mxfile>
